Coordinates
version=1
nRows=8
nColumns=40
inDegrees=yes
endheader
time	pelvis_tilt	pelvis_list	pelvis_rotation	pelvis_tx	pelvis_ty	pelvis_tz	hip_flexion_r	hip_adduction_r	hip_rotation_r	knee_angle_r	knee_angle_r_beta	ankle_angle_r	subtalar_angle_r	mtp_angle_r	hip_flexion_l	hip_adduction_l	hip_rotation_l	knee_angle_l	knee_angle_l_beta	ankle_angle_l	subtalar_angle_l	mtp_angle_l	lumbar_extension	lumbar_bending	lumbar_rotation	arm_flex_r	arm_add_r	arm_rot_r	elbow_flex_r	pro_sup_r	wrist_flex_r	wrist_dev_r	arm_flex_l	arm_add_l	arm_rot_l	elbow_flex_l	pro_sup_l	wrist_flex_l	wrist_dev_l
1760624555.23768497	     11.03321976	     -1.97758209	     -0.02407864	      0.19346484	      0.86079745	     -0.00003561	     80.00000000	     -7.00000000	      0.00000000	     80.00000000	      1.39626340	      0.00000000	      0.00000000	      0.00000000	     80.00000000	     -7.00000000	      0.00000000	     80.00000000	      1.39626340	      0.00000000	      0.00000000	      0.00000000	    -18.18581073	      0.64582273	      0.97801448	      5.22074133	     -2.47380395	      0.40557264	      0.00000000	      4.11209501	    -70.00000021	    -24.99999983	      4.46859329	     -0.87950028	      0.23818118	      0.00000000	     18.65922440	    -70.00000021	    -24.99999983
1760624555.24768496	     11.03307175	     -1.97781041	     -0.02458779	      0.19345684	      0.86079528	     -0.00008524	     80.00000000	     -7.00000000	      0.00000000	     80.00000000	      1.39626340	      0.00000000	      0.00000000	      0.00000000	     80.00000000	     -7.00000000	      0.00000000	     80.00000000	      1.39626340	      0.00000000	      0.00000000	      0.00000000	    -18.18600138	      0.64588227	      0.97786317	      5.22050328	     -2.47319479	      0.40577909	      0.00000000	      4.11182875	    -70.00000021	    -24.99999983	      4.46877844	     -0.88010123	      0.23815176	      0.00000000	     18.65949376	    -70.00000021	    -24.99999983
1760624555.25768495	     11.03319812	     -1.97789684	     -0.02490714	      0.19343195	      0.86078351	     -0.00010664	     80.00000000	     -7.00000000	      0.00000000	     80.00000000	      1.39626340	      0.00000000	      0.00000000	      0.00000000	     80.00000000	     -7.00000000	      0.00000000	     80.00000000	      1.39626340	      0.00000000	      0.00000000	      0.00000000	    -18.18608171	      0.64593066	      0.97771163	      5.22017590	     -2.47246282	      0.40597876	      0.00000000	      4.11155723	    -70.00000021	    -24.99999983	      4.46870414	     -0.88007367	      0.23809524	      0.00000000	     18.65975233	    -70.00000021	    -24.99999983
1760624555.26768494	     11.03325887	     -1.97809762	     -0.02586165	      0.19344056	      0.86079363	     -0.00013983	     80.00000000	     -7.00000000	      0.00000000	     80.00000000	      1.39626340	      0.00000000	      0.00000000	      0.00000000	     80.00000000	     -7.00000000	      0.00000000	     80.00000000	      1.39626340	      0.00000000	      0.00000000	      0.00000000	    -18.18592303	      0.64611466	      0.97703331	      5.21967696	     -2.47168808	      0.40617303	      0.00000000	      4.11129159	    -70.00000021	    -24.99999983	      4.46976162	     -0.88034412	      0.23818018	      0.00000000	     18.66010946	    -70.00000021	    -24.99999983
1760624555.27768493	     11.03277802	     -1.97671676	     -0.02692797	      0.19339886	      0.86082782	     -0.00018028	     80.00000000	     -7.00000000	      0.00000000	     80.00000000	      1.39626340	      0.00000000	      0.00000000	      0.00000000	     80.00000000	     -7.00000000	      0.00000000	     80.00000000	      1.39626340	      0.00000000	      0.00000000	      0.00000000	    -18.18631673	      0.64782495	      0.97684119	      5.21867562	     -2.47006302	      0.40663608	      0.00000000	      4.11070075	    -70.00000021	    -24.99999983	      4.46925933	     -0.88091253	      0.23819271	      0.00000000	     18.66082427	    -70.00000021	    -24.99999983
1760624555.28768492	     11.03268131	     -1.97631355	     -0.02757126	      0.19340205	      0.86082924	     -0.00022294	     80.00000000	     -7.00000000	      0.00000000	     80.00000000	      1.39626340	      0.00000000	      0.00000000	      0.00000000	     80.00000000	     -7.00000000	      0.00000000	     80.00000000	      1.39626340	      0.00000000	      0.00000000	      0.00000000	    -18.18639930	      0.64852466	      0.97677190	      5.21847094	     -2.46932138	      0.40685304	      0.00000000	      4.11044969	    -70.00000021	    -24.99999983	      4.46936271	     -0.88164250	      0.23825399	      0.00000000	     18.66117230	    -70.00000021	    -24.99999983
1760624555.29768491	     11.03283559	     -1.97565980	     -0.02833030	      0.19339697	      0.86083117	     -0.00026343	     80.00000000	     -7.00000000	      0.00000000	     80.00000000	      1.39626340	      0.00000000	      0.00000000	      0.00000000	     80.00000000	     -7.00000000	      0.00000000	     80.00000000	      1.39626340	      0.00000000	      0.00000000	      0.00000000	    -18.18626760	      0.64949474	      0.97667911	      5.21822009	     -2.46871738	      0.40707728	      0.00000000	      4.11020421	    -70.00000021	    -24.99999983	      4.46954216	     -0.88264472	      0.23834106	      0.00000000	     18.66153732	    -70.00000021	    -24.99999983
1760624555.30768490	     11.03629364	     -1.96993997	     -0.03379421	      0.19342481	      0.86084233	     -0.00031140	     80.00000000	     -7.00000000	      0.00000000	     80.00000000	      1.39626340	      0.00000000	      0.00000000	      0.00000000	     80.00000000	     -7.00000000	      0.00000000	     80.00000000	      1.39626340	      0.00000000	      0.00000000	      0.00000000	    -18.18270655	      0.65672265	      0.97450161	      5.21656915	     -2.46844357	      0.40950741	      0.00000000	      4.10834651	    -70.00000021	    -24.99999983	      4.47539438	     -0.88878171	      0.23954830	      0.00000000	     18.66514040	    -70.00000021	    -24.99999983
